<svg width="48" height="48" viewBox="0 0 48 48" fill="none" xmlns="http://www.w3.org/2000/svg">
<circle cx="24" cy="24" r="24" transform="matrix(-1 0 0 1 48 0)" fill="white"/>
<path d="M23.096 43.4677V39.9555C16.9063 39.736 11.6384 36.0483 9.09227 30.7801L23.096 22.7021V18.6193L7.907 27.3996C7.6436 26.2143 7.51191 24.985 7.51191 23.7558C7.51191 14.9754 14.404 7.86335 23.096 7.51214V4C12.4725 4.35122 4 13.0438 4 23.7558C4 34.4239 12.4725 43.1164 23.096 43.4677ZM25.2666 39.9156V43.4677C33.0281 43.2045 39.6494 38.4684 42.6312 31.7589H38.6847C37.5008 33.82 35.8783 35.618 33.9489 36.9774V10.4464C35.8783 11.8058 37.5008 13.6038 38.6847 15.6649H42.6312C39.6494 8.95539 33.0281 4.26312 25.2666 4V7.50823C27.0645 7.55209 28.8185 7.94677 30.4409 8.56071V38.8631C28.8185 39.477 27.0645 39.8717 25.2666 39.9156Z" fill="black"/>
</svg>
